<svg id="Layer_1" data-name="Layer 1" xmlns="http://www.w3.org/2000/svg" viewBox="0 0 77.6 77.58"><defs><style>.cls-1{fill:#faa31a;}.cls-2{fill:#fcd305;}</style></defs><title>Connext Asset Layout</title><path class="cls-1" d="M43.88,37.94H43.5a5.84,5.84,0,0,0-4.14,1.72l0,0a8.35,8.35,0,0,1-12-.55c-3-3.18-3.22-8.47-.27-11.65a8.59,8.59,0,0,1,12.25-.25l0,0a5.7,5.7,0,0,0,4,1.72h.49a1.59,1.59,0,0,0,1.41-2.35l0,0A1.2,1.2,0,0,1,45.57,25l3.38-3.38a2.59,2.59,0,0,0,0-3.66h0a2.59,2.59,0,0,0-3.66,0l-2.86,2.86a2.58,2.58,0,0,1-3,.49,13.57,13.57,0,0,0-12,0,2.58,2.58,0,0,1-3-.49l-2.86-2.86a2.59,2.59,0,0,0-3.66,0h0a2.59,2.59,0,0,0,0,3.66l2.86,2.86a2.58,2.58,0,0,1,.49,3,13.57,13.57,0,0,0,0,12,2.58,2.58,0,0,1-.49,3L18,45.28a2.59,2.59,0,0,0,0,3.66h0a2.59,2.59,0,0,0,3.66,0l2.86-2.86a2.58,2.58,0,0,1,3-.49,13.57,13.57,0,0,0,12,0,2.58,2.58,0,0,1,3,.49l2.86,2.86a2.59,2.59,0,0,0,3.66,0h0a2.59,2.59,0,0,0,0-3.66L45.57,41.9a1.16,1.16,0,0,1-.31-1.57l0,0A1.59,1.59,0,0,0,43.88,37.94Z"/><path class="cls-2" d="M33.73,39.64h.38a5.84,5.84,0,0,0,4.14-1.72l0,0a8.35,8.35,0,0,1,12,.55c3,3.18,3.22,8.47.27,11.65a8.59,8.59,0,0,1-12.25.25l0,0a5.7,5.7,0,0,0-4-1.72h-.49A1.59,1.59,0,0,0,32.37,51l0,0A1.2,1.2,0,0,1,32,52.6L28.66,56a2.59,2.59,0,0,0,0,3.66h0a2.59,2.59,0,0,0,3.66,0l2.86-2.86a2.58,2.58,0,0,1,3-.49,13.57,13.57,0,0,0,12,0,2.58,2.58,0,0,1,3,.49L56,59.63a2.59,2.59,0,0,0,3.66,0h0a2.59,2.59,0,0,0,0-3.66l-2.86-2.86a2.58,2.58,0,0,1-.49-3,13.57,13.57,0,0,0,0-12,2.58,2.58,0,0,1,.49-3l2.86-2.86a2.59,2.59,0,0,0,0-3.66h0a2.59,2.59,0,0,0-3.66,0l-2.86,2.86a2.58,2.58,0,0,1-3,.49,13.57,13.57,0,0,0-12,0,2.58,2.58,0,0,1-3-.49l-2.86-2.86a2.59,2.59,0,0,0-3.66,0h0a2.59,2.59,0,0,0,0,3.66L32,35.68a1.16,1.16,0,0,1,.31,1.57l0,0A1.59,1.59,0,0,0,33.73,39.64Z"/></svg>